<svg id="Layer_1" data-name="Layer 1" xmlns="http://www.w3.org/2000/svg" xmlns:xlink="http://www.w3.org/1999/xlink" viewBox="0 0 54.01 54.05"><defs><style>.cls-1{fill:none;}.cls-2{clip-path:url(#clip-path);}.cls-3{fill:#df1919;}</style><clipPath id="clip-path" transform="translate(-0.03)"><ellipse class="cls-1" cx="27.32" cy="27.03" rx="27" ry="27.5"/></clipPath></defs><g class="cls-2"><g id="Mask_Group_2" data-name="Mask Group 2"><g id="search"><g id="Group_29" data-name="Group 29"><g id="Group_28" data-name="Group 28"><path id="Path_16" data-name="Path 16" d="M27,0A27,27,0,1,0,54,27h0A27,27,0,0,0,27,0Zm0,52.19A25.17,25.17,0,1,1,52.19,27v0A25.18,25.18,0,0,1,27,52.19Z" transform="translate(-0.03)"/></g></g><g id="Group_31" data-name="Group 31"><g id="Group_30" data-name="Group 30"><path id="Path_17" data-name="Path 17" d="M54,25.13a26.48,26.48,0,0,0-3.41-11.37l-.26-.47H19.94a7.11,7.11,0,0,0-7.1,7.1v5.72H54Zm-39.3-.85V20.37a5.29,5.29,0,0,1,5.28-5.27H49.21a24.65,24.65,0,0,1,2.84,9.16Z" transform="translate(-0.03)"/></g></g><g id="Group_33" data-name="Group 33"><g id="Group_32" data-name="Group 32"><path id="Path_18" data-name="Path 18" d="M19.7,17a3.2,3.2,0,1,0,3.2,3.2A3.2,3.2,0,0,0,19.7,17Zm0,4.58a1.38,1.38,0,1,1,1.37-1.39v0h0A1.37,1.37,0,0,1,19.7,21.53Z" transform="translate(-0.03)"/></g></g><g id="Group_35" data-name="Group 35"><g id="Group_34" data-name="Group 34"><path id="Path_19" data-name="Path 19" d="M27,17a3.2,3.2,0,1,0,3.2,3.2A3.2,3.2,0,0,0,27,17Zm0,4.58a1.38,1.38,0,1,1,1.37-1.39v0h0A1.37,1.37,0,0,1,27,21.53Z" transform="translate(-0.03)"/></g></g><g id="Group_37" data-name="Group 37"><g id="Group_36" data-name="Group 36"><path id="Path_20" data-name="Path 20" d="M34.35,16.94a3.22,3.22,0,1,0,3.22,3.22h0A3.22,3.22,0,0,0,34.35,16.94Zm0,4.58a1.36,1.36,0,1,1,1.36-1.36h0A1.37,1.37,0,0,1,34.35,21.52Z" transform="translate(-0.03)"/></g></g><g id="Group_39" data-name="Group 39"><g id="Group_38" data-name="Group 38"><path id="Path_21" data-name="Path 21" d="M54,25.13l-.06-.85H12.83V50l.45.27A27,27,0,0,0,54,27C54,26.45,54,25.85,54,25.13ZM27,52.21A25.13,25.13,0,0,1,14.67,49V26.11H52.19V27A25.22,25.22,0,0,1,27,52.21Z" transform="translate(-0.03)"/></g></g><g id="Group_41" data-name="Group 41"><g id="Group_40" data-name="Group 40"><path id="Path_22" data-name="Path 22" class="cls-3" d="M26.55,29.77A6.41,6.41,0,1,0,33,36.18h0A6.41,6.41,0,0,0,26.55,29.77Zm0,11a4.58,4.58,0,1,1,4.58-4.58,4.58,4.58,0,0,1-4.58,4.58Z" transform="translate(-0.03)"/></g></g><g id="Group_43" data-name="Group 43"><g id="Group_42" data-name="Group 42"><path id="Path_23" data-name="Path 23" class="cls-3" d="M37.29,45.61l-6-6a.92.92,0,1,0-1.35,1.25s0,0,0,0l6,6a.93.93,0,0,0,1.3-.12.92.92,0,0,0,0-1.17Z" transform="translate(-0.03)"/></g></g></g></g></g></svg>